HIERARCHY
ROOT Hips
{
  OFFSET 179.979 97.3047 303.174
  CHANNELS 6 Xposition Yposition Zposition Zrotation Xrotation Yrotation
  JOINT Spine
  {
    OFFSET 0.000859786 9.92346 -1.22733
    CHANNELS 3 Zrotation Xrotation Yrotation
    JOINT Spine1
    {
      OFFSET 0 11.732 0
      CHANNELS 3 Zrotation Xrotation Yrotation
      JOINT Spine2
      {
        OFFSET 0 13.4588 0
        CHANNELS 3 Zrotation Xrotation Yrotation
        JOINT Neck
        {
          OFFSET 2.54812e-05 15.0278 0.877907
          CHANNELS 3 Zrotation Xrotation Yrotation
          JOINT Head
          {
            OFFSET 0 10.3218 3.14243
            CHANNELS 3 Zrotation Xrotation Yrotation
            End Site
            {
              OFFSET 0 0 0
            }
          }
        }
        JOINT LeftShoulder
        {
          OFFSET 6.10582 9.10629 0.757062
          CHANNELS 3 Zrotation Xrotation Yrotation
          JOINT LeftArm
          {
            OFFSET 0 12.9223 0
            CHANNELS 3 Zrotation Xrotation Yrotation
            JOINT LeftForeArm
            {
              OFFSET 0 27.4047 0
              CHANNELS 3 Zrotation Xrotation Yrotation
              JOINT LeftHand
              {
                OFFSET -1.28204e-05 27.6145 0
                CHANNELS 3 Zrotation Xrotation Yrotation
                End Site
                {
                  OFFSET 0 0 0
                }
              }
            }
          }
        }
        JOINT RightShoulder
        {
          OFFSET -6.1057 9.10638 0.757076
          CHANNELS 3 Zrotation Xrotation Yrotation
          JOINT RightArm
          {
            OFFSET 0 12.9223 0
            CHANNELS 3 Zrotation Xrotation Yrotation
            JOINT RightForeArm
            {
              OFFSET 0 27.4047 0
              CHANNELS 3 Zrotation Xrotation Yrotation
              JOINT RightHand
              {
                OFFSET 1.28428e-05 27.6145 1.44975e-05
                CHANNELS 3 Zrotation Xrotation Yrotation
                End Site
                {
                  OFFSET 0 0 0
                }
              }
            }
          }
        }
      }
    }
  }
  JOINT LeftUpLeg
  {
    OFFSET 9.12387 -6.65719 -0.0554031
    CHANNELS 3 Zrotation Xrotation Yrotation
    JOINT LeftLeg
    {
      OFFSET 0 40.5994 0
      CHANNELS 3 Zrotation Xrotation Yrotation
      JOINT LeftFoot
      {
        OFFSET 0 42.099 0
        CHANNELS 3 Zrotation Xrotation Yrotation
        JOINT LeftToeBase
        {
          OFFSET 0 15.7216 0
          CHANNELS 3 Zrotation Xrotation Yrotation
          End Site
          {
            OFFSET 0 0 0
          }
        }
      }
    }
  }
  JOINT RightUpLeg
  {
    OFFSET -9.12503 -6.6556 -0.0553527
    CHANNELS 3 Zrotation Xrotation Yrotation
    JOINT RightLeg
    {
      OFFSET 0 40.5994 0
      CHANNELS 3 Zrotation Xrotation Yrotation
      JOINT RightFoot
      {
        OFFSET 0 42.099 0
        CHANNELS 3 Zrotation Xrotation Yrotation
        JOINT RightToeBase
        {
          OFFSET 0 15.7216 0
          CHANNELS 3 Zrotation Xrotation Yrotation
          End Site
          {
            OFFSET 0 0 0
          }
        }
      }
    }
  }
}
MOTION
Frames:	10
Frame Time:	0.0333333
-39.7071 98.2643 -35.3841 0.163851 2.08565 -4.60836 -0.137273 -6.18983 0.0829372 -0.274569 1.55773 0.189789 -0.294757 8.15216 0.194726 0.19428 13.6333 -1.55959 -5.13636 -23.2832 -1.49697 -88.2196 -18.1786 89.9298 2.43917 23.0277 -19.3887 52.2136 -26.9869 -1.00484 -4.31655 -15.6712 8.7306 90.7967 -13.4206 -90.4221 -2.07758 22.5993 29.7016 -51.8715 -13.539 0.913707 -4.9506 -15.9285 -16.5591 -179.468 9.2546 -11.9063 1.37988 -22.4714 -6.08858 24.1376 77.1366 -23.5969 -0.965289 26.367 -3.60228 173.545 8.85126 11.0465 -3.73383 -20.8344 1.64292 -1.6105 77.6875 8.37348 0.963504 26.3682 3.55538 
-39.6765 98.2563 -35.5053 0.165729 2.10059 -4.62666 -0.137273 -6.18983 0.0829372 -0.274549 1.5518 0.189788 -0.294737 8.14624 0.194723 0.194644 13.6463 -1.55967 -5.21138 -23.3142 -1.49732 -88.2196 -18.1786 89.9298 2.45907 23.0217 -19.4341 52.2217 -26.9909 -1.00487 -4.26872 -15.6151 8.767 90.7968 -13.4112 -90.422 -2.08168 22.5697 29.6634 -51.9664 -13.565 0.913807 -4.88609 -15.8709 -16.4645 -179.483 9.36908 -11.937 1.38128 -22.491 -6.0833 24.1487 77.1273 -23.5579 -0.965289 26.367 -3.60228 173.519 8.9195 11.0574 -3.7148 -20.7867 1.63382 -1.57418 77.6878 8.32112 0.963504 26.3682 3.55538 
-39.6177 98.243 -35.7267 0.168927 2.12659 -4.65598 -0.137273 -6.18983 0.0829372 -0.274517 1.54197 0.189787 -0.294703 8.13641 0.194718 0.194629 13.6458 -1.55967 -5.34231 -23.3452 -1.49767 -88.2198 -18.1716 89.9294 2.4847 23.0049 -19.5614 52.2986 -26.9644 -1.00464 -4.19085 -15.5463 8.95676 90.7969 -13.3947 -90.4219 -2.05788 22.5624 29.7727 -52.1828 -13.51 0.913596 -4.99374 -15.7961 -16.5856 -179.515 9.61397 -12.0199 1.41619 -22.5573 -6.04793 24.1656 77.1137 -23.4848 -0.965289 26.367 -3.60228 173.481 9.02808 11.1471 -3.70726 -20.6668 1.5734 -1.38056 77.6769 8.09741 0.963504 26.3682 3.55538 
-39.5586 98.233 -35.9482 0.172046 2.15412 -4.6792 -0.137273 -6.18983 0.0829372 -0.274516 1.54181 0.189787 -0.294702 8.13625 0.194718 0.179259 13.574 -1.55912 -5.34021 -23.3956 -1.49499 -88.219 -18.2031 89.9286 2.51342 22.9742 -19.699 52.4007 -26.91 -1.00415 -4.1634 -15.5565 9.16937 90.8007 -13.425 -90.4212 -2.07391 22.5974 29.9491 -52.378 -13.439 0.913325 -5.14708 -15.7376 -16.7212 -179.552 9.59303 -12.1443 1.43123 -22.3475 -5.98079 24.0815 77.0964 -23.3149 -0.965289 26.367 -3.60228 173.442 9.11739 11.2269 -3.67615 -20.5116 1.53024 -1.21602 77.6485 7.89465 0.963504 26.3682 3.55538 
-39.5022 98.2327 -36.1695 0.175325 2.18607 -4.69653 -0.137273 -6.18983 0.0829372 -0.277312 1.54689 0.189789 -0.297602 8.14133 0.195053 0.173351 13.4987 -1.57179 -5.24383 -23.5223 -1.51884 -88.2126 -18.2656 89.9238 2.53052 22.9624 -19.8046 52.5113 -26.8543 -1.00366 -4.14673 -15.6069 9.26399 90.8191 -13.4874 -90.4172 -2.11946 22.6722 30.1092 -52.518 -13.3716 0.913068 -5.17185 -15.7684 -16.8019 -179.587 9.68637 -12.2657 1.47198 -22.21 -5.9099 23.9229 77.0444 -23.0639 -0.965289 26.367 -3.60228 173.399 9.16825 11.2299 -3.57063 -20.2875 1.55782 -1.20704 77.5824 7.82751 0.963504 26.3682 3.55538 
-39.4514 98.2381 -36.391 0.17533 2.22343 -4.71096 -0.143988 -6.18983 0.082123 -0.290642 1.55294 0.189795 -0.311314 8.14738 0.196634 0.180194 13.4687 -1.63798 -5.1112 -23.7405 -1.5993 -88.1994 -18.296 89.9214 2.50315 22.9779 -19.8681 52.6078 -26.8104 -1.00327 -4.12966 -15.6646 9.22566 90.8508 -13.5839 -90.4103 -2.17242 22.7808 30.1927 -52.5989 -13.3348 0.912929 -5.07779 -15.8549 -16.8034 -179.622 9.83014 -12.3551 1.51003 -22.091 -5.85884 23.7393 76.9554 -22.787 -0.965289 26.367 -3.60228 173.356 9.20757 11.2196 -3.45111 -20.0321 1.59983 -1.24813 77.4965 7.80322 0.963504 26.3682 3.55538 
-39.4065 98.2445 -36.6127 0.170105 2.2684 -4.73354 -0.152837 -6.18982 0.08105 -0.308254 1.55902 0.194019 -0.329395 8.15345 0.198719 0.143639 13.4654 -1.71427 -4.93443 -23.952 -1.70781 -88.1943 -18.3475 89.9171 2.44749 23.0129 -19.904 52.6917 -26.7996 -1.00369 -4.09146 -15.6371 9.17121 90.8863 -13.6488 -90.4048 -2.21149 22.9292 30.1545 -52.5863 -13.3392 0.912946 -5.06477 -16.0509 -16.7668 -179.656 10.238 -12.3492 1.58267 -22.2316 -5.86689 23.6791 76.8439 -22.6536 -0.965289 26.367 -3.60228 173.324 9.2601 11.196 -3.33249 -19.7804 1.64414 -1.309 77.4027 7.79587 0.963504 26.3682 3.55538 
-39.3683 98.2513 -36.8348 0.164082 2.32256 -4.77693 -0.163867 -6.18982 0.0797127 -0.330236 1.56464 0.199277 -0.351981 8.15908 0.201323 0.0600468 13.4628 -1.80415 -4.74336 -24.1052 -1.84648 -88.1985 -18.4085 89.9123 2.35071 23.0782 -19.9082 52.7688 -26.8157 -1.00461 -4.07659 -15.616 9.19772 90.9316 -13.6727 -90.404 -2.22605 23.1365 30.1398 -52.5578 -13.3247 0.912891 -5.10294 -16.1149 -16.7479 -179.678 10.1867 -12.3283 1.53594 -21.9216 -5.91226 23.6495 76.7208 -22.5601 -0.965289 26.367 -3.60228 173.301 9.3311 11.1397 -3.21278 -19.5374 1.69505 -1.36225 77.3019 7.77938 0.963504 26.3682 3.55538 
-39.3365 98.256 -37.0581 0.155967 2.38903 -4.85361 -0.177428 -6.18981 0.0811056 -0.356802 1.56934 0.207783 -0.379518 8.16379 0.2099 -0.0575164 13.4644 -1.89768 -4.5395 -24.1968 -1.99948 -88.2093 -18.4789 89.9091 2.25899 23.1787 -19.8844 52.8093 -26.8426 -1.00563 -4.07844 -15.6521 9.27328 90.986 -13.6739 -90.4058 -2.22473 23.3853 30.1032 -52.5406 -13.3344 0.912928 -5.13036 -16.046 -16.7619 -179.682 10.1475 -12.3211 1.48275 -21.634 -5.96967 23.655 76.604 -22.5136 -0.965289 26.367 -3.60228 173.293 9.44661 11.0473 -3.10581 -19.3347 1.74246 -1.39107 77.1998 7.74186 0.963504 26.3682 3.55538 
-39.3085 98.2584 -37.2842 0.13107 2.46657 -4.94773 -0.188749 -6.18695 0.0876172 -0.379464 1.57505 0.223722 -0.404036 8.16947 0.225993 -0.176269 13.4791 -2.01249 -4.38788 -24.293 -2.17527 -88.2224 -18.528 89.9054 2.17315 23.3371 -19.9223 52.8145 -26.8367 -1.00609 -4.04359 -15.6843 9.24108 91.0461 -13.6648 -90.409 -2.21667 23.6265 30 -52.4896 -13.3828 0.913111 -5.13834 -15.954 -16.7337 -179.658 10.4541 -12.3337 1.50501 -21.7088 -6.01513 23.687 76.5089 -22.506 -0.965289 26.367 -3.60228 173.313 9.5976 10.9869 -3.03146 -19.1608 1.75102 -1.36204 77.0864 7.64913 0.963504 26.3682 3.55538 
